<svg xmlns="http://www.w3.org/2000/svg" version="1.1" xmlns:xlink="http://www.w3.org/1999/xlink"
     xmlns:svgjs="http://svgjs.com/svgjs" width="20px" height="20px" x="0" y="0" viewBox="0 0 24 24"
     style="enable-background:new 0 0 512 512" xml:space="preserve" class=""><g><g fill="#000" fill-rule="evenodd" clip-rule="evenodd"><path d="M12 8a1 1 0 0 1 1 1v4.444a1 1 0 1 1-2 0V9a1 1 0 0 1 1-1zM12 15.111a1 1 0 0 1 1 1V17a1 1 0 1 1-2 0v-.889a1 1 0 0 1 1-1z" fill="#af2626" data-original="#000000" class=""></path><path
        d="M3.166 18.132C2.71 18.92 3.266 20 4.357 20h15.536c1.091 0 1.646-1.08 1.191-1.868L13.316 4.666c-.512-.888-1.87-.888-2.382 0zM4.357 22c-2.498 0-4.212-2.633-2.924-4.867L9.201 3.666c1.282-2.221 4.566-2.221 5.848 0l7.768 13.467C24.105 19.367 22.39 22 19.893 22z"
        fill="#D52020" data-original="#000000" class=""></path></g></g></svg>