<?xml version="1.0" encoding="utf-8"?>
<!-- Svg Vector Icons : http://www.onlinewebfonts.com/icon -->
<!DOCTYPE svg PUBLIC "-//W3C//DTD SVG 1.1//EN" "http://www.w3.org/Graphics/SVG/1.1/DTD/svg11.dtd">
<svg version="1.1" xmlns="http://www.w3.org/2000/svg" xmlns:xlink="http://www.w3.org/1999/xlink" height="24px" width="24px" x="0px" y="0px" viewBox="0 0 1000 1000" enable-background="new 0 0 1000 1000" xml:space="preserve">
<metadata> Svg Vector Icons : http://www.onlinewebfonts.com/icon </metadata>
<g><path d="M488.9,560.8c92.5-38.2,157.7-129.4,157.7-235.7c0-140.8-114.2-255-255-255c-140.8,0-255,114.2-255,255c0,106.4,65.1,197.5,157.6,235.7C130.6,603.9,10,752.8,10,929.9h43.6c0-45.6,8.9-89.9,26.5-131.5c17-40.2,41.4-76.4,72.4-107.4c31.1-31.1,67.2-55.4,107.4-72.4c41.6-17.6,85.9-26.5,131.5-26.5c45.6,0,89.9,8.9,131.5,26.5c40.2,17,76.4,41.4,107.4,72.4c31.1,31.1,55.4,67.2,72.4,107.4c17.6,41.6,26.5,85.9,26.5,131.5h43.6C773.1,752.8,652.4,603.9,488.9,560.8z M391.5,536.5c-56.5,0-109.5-22-149.5-61.9c-39.9-39.9-61.9-93-61.9-149.5c0-56.5,22-109.5,61.9-149.5c39.9-39.9,93-61.9,149.5-61.9c56.5,0,109.6,22,149.5,61.9c39.9,39.9,61.9,93,61.9,149.5c0,56.5-22,109.6-61.9,149.5C501.1,514.5,448,536.5,391.5,536.5z"/><path d="M859.9,504.1V374h-43.6v130.1H686.2v43.6h130.1v130.1h43.6V547.7H990v-43.6H859.9z"/></g>
</svg>